<svg width="10" height="12" viewBox="0 0 10 12" fill="none" xmlns="http://www.w3.org/2000/svg">
<path id="Vector" d="M0 1.22945C0 0.238909 1.11327 -0.343636 1.92709 0.221455L8.74746 4.956C8.90967 5.06856 9.04233 5.2186 9.13418 5.39338C9.22603 5.56817 9.27436 5.76253 9.27505 5.95997C9.27575 6.15742 9.2288 6.35211 9.13818 6.52754C9.04757 6.70296 8.91596 6.85393 8.75455 6.96764L1.93418 11.7731C1.12145 12.3458 0 11.7655 0 10.77V1.22945ZM1.46073 0.893455C1.39937 0.850814 1.3275 0.825793 1.25293 0.821107C1.17835 0.816421 1.10392 0.83225 1.0377 0.866875C0.97149 0.9015 0.916023 0.953598 0.877324 1.01752C0.838624 1.08144 0.818171 1.15473 0.818182 1.22945V10.77C0.818191 10.8449 0.838783 10.9184 0.877712 10.9825C0.916641 11.0465 0.97241 11.0986 1.03893 11.1331C1.10546 11.1676 1.18018 11.1832 1.25495 11.1781C1.32971 11.173 1.40165 11.1475 1.46291 11.1044L8.28327 6.29891C8.33716 6.26103 8.38111 6.2107 8.41138 6.1522C8.44165 6.0937 8.45734 6.02875 8.45713 5.96289C8.45691 5.89702 8.4408 5.83217 8.41015 5.77387C8.3795 5.71557 8.33523 5.66552 8.28109 5.628L1.46073 0.893455Z" fill="black"/>
</svg>
