<svg width="20" height="20" viewBox="0 0 20 20" fill="none" xmlns="http://www.w3.org/2000/svg">
<path id="Vector" d="M20 0.995735V18.919C20 19.183 19.9087 19.4363 19.7463 19.6231C19.5838 19.8098 19.3634 19.9147 19.1337 19.9147H0.0742195C0.23669 20.1014 -0.155549 19.9147 0.0742195 19.9147C0.0742195 20.1788 -0.0882512 19.728 0.0742195 19.9147C-0.0882512 20.1014 0.0742195 19.6506 0.0742195 19.9147C-0.155549 19.9147 0.23669 19.728 0.0742195 19.9147L0.074136 12.9446C0.074136 12.6805 0.165411 12.4272 0.327882 12.2405C0.490353 12.0537 0.71071 11.9488 0.940478 11.9488H6.13853V6.97014C6.13853 6.70606 6.2298 6.45279 6.39227 6.26605C6.55475 6.07932 6.77511 5.97441 7.00488 5.97441H12.2029V0.995735C12.2029 0.731649 12.2942 0.478381 12.4567 0.291644C12.6191 0.104908 12.8395 0 13.0693 0H19.1337C19.3634 0 19.5838 0.104908 19.7463 0.291644C19.9087 0.478381 20 0.731649 20 0.995735Z" fill="#C3002F"/>
</svg>
