<svg width="24" height="24" viewBox="0 0 24 24" fill="none" xmlns="http://www.w3.org/2000/svg">
<g id="Frame">
<path id="Vector" d="M6 4C5.20435 4 4.44129 4.31607 3.87868 4.87868C3.31607 5.44129 3 6.20435 3 7V13C3 13.7956 3.31607 14.5587 3.87868 15.1213C4.44129 15.6839 5.20435 16 6 16H18C18.7956 16 19.5587 15.6839 20.1213 15.1213C20.6839 14.5587 21 13.7956 21 13V7C21 6.20435 20.6839 5.44129 20.1213 4.87868C19.5587 4.31607 18.7956 4 18 4H6ZM6 18.25C6 18.0511 6.07902 17.8603 6.21967 17.7197C6.36032 17.579 6.55109 17.5 6.75 17.5H17.25C17.4489 17.5 17.6397 17.579 17.7803 17.7197C17.921 17.8603 18 18.0511 18 18.25C18 18.4489 17.921 18.6397 17.7803 18.7803C17.6397 18.921 17.4489 19 17.25 19H6.75C6.55109 19 6.36032 18.921 6.21967 18.7803C6.07902 18.6397 6 18.4489 6 18.25Z" fill="#C3002F"/>
</g>
</svg>
