<svg width="20" height="20" viewBox="0 0 20 20" fill="none" xmlns="http://www.w3.org/2000/svg">
<g id="ion:wifi" clip-path="url(#clip0_475_1651)">
<path id="Vector" fill-rule="evenodd" clip-rule="evenodd" d="M12.9407 13.8189C12.9458 13.826 12.9371 13.8138 12.9407 13.8189C12.9275 13.8009 12.9139 13.7831 12.9001 13.7656C12.8553 13.7093 12.8082 13.6549 12.7588 13.6027C12.6372 13.4737 12.4584 13.3083 12.217 13.1447C11.7294 12.8143 10.9979 12.5 9.99945 12.5C9.00102 12.5 8.26949 12.8143 7.78195 13.1447C7.54055 13.3083 7.36172 13.4737 7.24016 13.6027C7.19072 13.6549 7.14357 13.7093 7.09883 13.7656C7.08203 13.7868 7.10914 13.7515 7.09883 13.7656L7.03688 13.8493C6.95457 13.971 6.91781 14.1179 6.93306 14.2641C6.94832 14.4103 7.0146 14.5464 7.12027 14.6486L9.56504 17.0119C9.80731 17.2461 10.1916 17.2461 10.4338 17.0119L12.8786 14.6486C12.9843 14.5464 13.0506 14.4103 13.0659 14.2641C13.0811 14.1179 13.0444 13.971 12.9621 13.8493L12.9407 13.8189Z" fill="#C3002F"/>
<path id="Vector_2" fill-rule="evenodd" clip-rule="evenodd" d="M16.4491 10.5415C16.4438 10.533 16.4258 10.5038 16.4174 10.4907C16.3946 10.4558 16.371 10.4215 16.3467 10.3876C16.286 10.3031 16.1977 10.1886 16.0786 10.0542C15.8404 9.78543 15.4786 9.43691 14.9686 9.0918C13.9424 8.39723 12.3429 7.73438 10.0004 7.73438C7.65794 7.73438 6.05841 8.39723 5.0322 9.0918C4.52224 9.43691 4.16041 9.78543 3.92216 10.0542C3.80306 10.1886 3.71474 10.3031 3.65416 10.3876C3.62981 10.4214 3.60624 10.4558 3.58345 10.4907C3.57501 10.5038 3.56814 10.5146 3.56287 10.5231L3.55173 10.5415C3.48018 10.6626 3.45158 10.8043 3.47056 10.9437C3.48955 11.0831 3.555 11.212 3.65634 11.3096L5.03564 12.6377C5.0961 12.6959 5.16766 12.7414 5.24606 12.7713C5.32446 12.8013 5.40809 12.8152 5.49196 12.8121C5.57583 12.809 5.65823 12.7891 5.73423 12.7535C5.81024 12.7179 5.8783 12.6674 5.93435 12.6049L5.94197 12.5968C5.95005 12.5882 5.96404 12.5737 5.98392 12.5539C6.04477 12.494 6.10771 12.4362 6.17263 12.3807C6.34459 12.2328 6.60595 12.0312 6.95212 11.8283C7.6433 11.4233 8.6681 11.0156 10.0004 11.0156C11.3327 11.0156 12.3575 11.4233 13.0487 11.8283C13.3949 12.0312 13.6562 12.2328 13.8282 12.3807C13.8931 12.4362 13.956 12.494 14.0169 12.5539C14.0337 12.5706 14.0503 12.5876 14.0665 12.6049L14.0663 12.6047L14.0658 12.6041M14.0658 12.6041L14.0668 12.6052C14.1228 12.6676 14.1909 12.7181 14.2669 12.7536C14.3429 12.7892 14.4252 12.8091 14.5091 12.8121C14.5929 12.8151 14.6765 12.8012 14.7549 12.7713C14.8332 12.7413 14.9047 12.6959 14.9652 12.6377L16.3445 11.3096C16.4458 11.212 16.5113 11.0831 16.5302 10.9437C16.5492 10.8043 16.5206 10.6626 16.4491 10.5415" fill="#C3002F"/>
<path id="Vector_3" d="M19.8428 7.08063C19.8562 7.09855 19.8889 7.14426 19.8889 7.14426C19.9732 7.26606 20.0115 7.41384 19.997 7.56127C19.9825 7.70869 19.9161 7.84616 19.8096 7.94918L18.3764 9.3359C18.3149 9.39543 18.2418 9.44168 18.1617 9.47179C18.0815 9.5019 17.9961 9.51523 17.9106 9.51094C17.8251 9.50666 17.7413 9.48485 17.6646 9.44688C17.5879 9.40891 17.5198 9.35558 17.4645 9.2902L17.4644 9.29008C17.4571 9.28161 17.4497 9.27318 17.4423 9.2648C17.4141 9.2334 17.3855 9.20242 17.3564 9.17188C17.278 9.08922 17.1574 8.96762 16.9959 8.81992C16.6727 8.52426 16.1877 8.12602 15.5507 7.72691C14.2773 6.92906 12.4055 6.13281 10 6.13281C7.59456 6.13281 5.72272 6.92906 4.44932 7.72691C3.81233 8.12602 3.32737 8.52426 3.00413 8.81992C2.84268 8.96762 2.7221 9.08922 2.64362 9.17188C2.61455 9.20242 2.58594 9.2334 2.5578 9.2648C2.54882 9.27488 2.54257 9.28207 2.53897 9.28621L2.53714 9.28832L2.53596 9.28965L2.53581 9.28988L2.53565 9.29008L2.5355 9.29023C2.48023 9.35561 2.41212 9.40893 2.3354 9.44689C2.25867 9.48486 2.17496 9.50666 2.08947 9.51094C2.00397 9.51522 1.91851 9.50189 1.83837 9.47178C1.75824 9.44167 1.68514 9.39542 1.62362 9.3359L0.190418 7.94918C0.0839525 7.84617 0.0175357 7.7087 0.00301208 7.56128C-0.0115115 7.41385 0.0268024 7.26606 0.111121 7.14426L0.111551 7.14363L0.112059 7.14297L0.113231 7.14129L0.116316 7.13687L0.125691 7.12371C0.133387 7.11301 0.143895 7.09855 0.157293 7.08063C0.18409 7.04469 0.22241 6.99473 0.272488 6.93273C0.372606 6.80875 0.519949 6.63645 0.716512 6.43203C1.10936 6.02344 1.7003 5.48512 2.50491 4.94871C4.11866 3.87289 6.58128 2.8125 10 2.8125C13.4188 2.8125 15.8814 3.87289 17.4951 4.94871C18.2998 5.48512 18.8907 6.02344 19.2835 6.43203C19.4801 6.63645 19.6274 6.80875 19.7276 6.93273C19.7669 6.98129 19.8053 7.03059 19.8428 7.08063Z" fill="#C3002F"/>
</g>
<defs>
<clipPath id="clip0_475_1651">
<rect width="20" height="20" fill="white"/>
</clipPath>
</defs>
</svg>
